<svg width="391" height="114" viewBox="0 0 391 114" fill="none" xmlns="http://www.w3.org/2000/svg">
<g clip-path="url(#clip0_302_34)">
<path d="M11 35V76H6V35H11Z" fill="white"/>
<path d="M288.026 45.7585C287.8 43.4915 286.796 41.6885 285.015 40.3495C283.235 39.0104 280.994 38.3409 278.296 38.3409C276.395 38.3409 274.72 38.6657 273.271 39.3153C271.835 39.9649 270.706 40.8665 269.882 42.0199C269.071 43.16 268.666 44.4593 268.666 45.9176C268.666 46.9915 268.898 47.9328 269.363 48.7415C269.829 49.5503 270.453 50.2463 271.238 50.8296C272.034 51.3996 272.913 51.8901 273.87 52.3012C274.839 52.7121 275.816 53.0568 276.8 53.3352L281.108 54.5683C282.41 54.9261 283.712 55.3836 285.015 55.9404C286.317 56.4972 287.507 57.1999 288.585 58.0483C289.674 58.8836 290.545 59.9107 291.196 61.1307C291.861 62.3373 292.193 63.7893 292.193 65.4853C292.193 67.66 291.629 69.616 290.498 71.352C289.368 73.0893 287.746 74.468 285.633 75.488C283.519 76.496 280.987 77 278.037 77C275.259 77 272.846 76.5427 270.799 75.628C268.751 74.7 267.143 73.42 265.973 71.7893C264.803 70.1587 264.146 68.2693 264 66.1227H267.827C267.961 67.7267 268.493 69.0853 269.424 70.1987C270.354 71.312 271.563 72.1613 273.052 72.744C274.541 73.3147 276.203 73.6 278.037 73.6C280.07 73.6 281.878 73.2613 283.461 72.5853C285.055 71.896 286.304 70.9413 287.209 69.7213C288.126 68.488 288.585 67.0573 288.585 65.4267C288.585 64.048 288.225 62.8933 287.507 61.9653C286.789 61.024 285.787 60.236 284.497 59.6C283.221 58.9631 281.739 58.3996 280.05 57.9091L275.165 56.4773C271.962 55.5228 269.476 54.2036 267.708 52.5199C265.94 50.8361 265.056 48.6885 265.056 46.0767C265.056 43.8892 265.642 41.9669 266.811 40.3097C267.995 38.6392 269.589 37.34 271.596 36.412C273.617 35.4707 275.883 35 278.395 35C280.934 35 283.181 35.464 285.134 36.3921C287.089 37.3201 288.637 38.5995 289.781 40.2301C290.938 41.8476 291.555 43.6904 291.635 45.7585H288.026ZM304.894 35.5767V76.304H301.166V35.5767H304.894ZM315.751 76.304V35.5767H339.378V38.9176H319.479V54.25H337.524V57.5909H319.479V76.304H315.751ZM344.822 35.5767H349.128L361.232 54.9063H361.59L373.693 35.5767H378L363.265 58.6648V76.304H359.557V58.6648L344.822 35.5767Z" fill="white"/>
<path d="M194 77L204.161 56M204.161 56L214.323 35H242.837C243.819 35 244.816 35.1467 245.651 35.6706C252.181 39.7661 253.121 53.0968 239.484 54.6L254 77M204.161 56H214.323" stroke="white" stroke-width="2.5"/>
<path d="M94.9922 68.4197V44.0324C94.9922 38.1614 91.4712 35.4516 87.0379 35H27.621C24.6646 35.3011 19.5506 38.2516 19.1958 44.0324C18.8412 49.8131 19.0481 62.6996 19.1958 68.4197C19.0481 70.9788 20.5261 76.2771 27.621 77H47.8217C48.2267 77 48.6088 76.8145 48.8644 76.4942L55.8151 67.7724C55.8595 67.7161 55.9093 67.6638 55.9617 67.6157L56.0048 67.5759C56.5564 67.0728 57.4014 67.1168 57.8979 67.6748L65.7971 76.5506C66.0514 76.8365 66.4133 77 66.7927 77H87.0379C91.2492 77 94.6613 73.986 94.9922 68.4197ZM94.9922 68.4197C94.9922 68.7276 95.0097 68.1256 94.9922 68.4197Z" stroke="white" stroke-width="2.5"/>
<path d="M37 58C40.866 58 44 55.0899 44 51.5C44 47.9101 40.866 45 37 45C33.134 45 30 47.9101 30 51.5C30 55.0899 33.134 58 37 58Z" stroke="white" stroke-width="1.5"/>
<path d="M77 58C80.866 58 84 55.0899 84 51.5C84 47.9101 80.866 45 77 45C73.134 45 70 47.9101 70 51.5C70 55.0899 73.134 58 77 58Z" stroke="white" stroke-width="1.5"/>
<path d="M183.992 68.4197V44.0324C183.992 38.1614 180.518 35.4516 176.141 35H117.507C114.59 35.3011 109.543 38.2516 109.194 44.0324C108.843 49.8131 109.047 62.6996 109.194 68.4197C109.047 70.9788 110.505 76.2771 117.507 77H137.441C137.841 77 138.219 76.8145 138.472 76.4942L145.331 67.7724C145.375 67.7161 145.423 67.6638 145.476 67.6157L145.518 67.5759C146.061 67.0728 146.895 67.1168 147.386 67.6748L155.181 76.5506C155.432 76.8365 155.79 77 156.164 77H176.141C180.299 77 183.664 73.986 183.992 68.4197ZM183.992 68.4197C183.992 68.7276 184.01 68.1256 183.992 68.4197Z" stroke="white" stroke-width="2.5"/>
<path d="M126 58C129.314 58 132 55.0899 132 51.5C132 47.9101 129.314 45 126 45C122.686 45 120 47.9101 120 51.5C120 55.0899 122.686 58 126 58Z" stroke="white" stroke-width="1.5"/>
<path d="M165.5 58C169.09 58 172 55.0899 172 51.5C172 47.9101 169.09 45 165.5 45C161.91 45 159 47.9101 159 51.5C159 55.0899 161.91 58 165.5 58Z" stroke="white" stroke-width="1.5"/>
</g>
<defs>
<clipPath id="clip0_302_34">
<rect width="391" height="114" fill="white"/>
</clipPath>
</defs>
</svg>
