<svg width="197" height="37" viewBox="0 0 197 37" fill="none" xmlns="http://www.w3.org/2000/svg">
<path d="M4.88992 7.18182V29H2.89773V7.18182H4.88992Z" fill="#1A3066"/>
<path d="M146.744 12.6364C146.624 11.4219 146.087 10.456 145.136 9.73864C144.184 9.02131 142.987 8.66264 141.545 8.66264C140.53 8.66264 139.635 8.83665 138.861 9.18466C138.094 9.53267 137.49 10.0156 137.05 10.6335C136.616 11.2443 136.4 11.9403 136.4 12.7216C136.4 13.2969 136.524 13.8011 136.773 14.2344C137.021 14.6676 137.355 15.0405 137.774 15.353C138.2 15.6584 138.669 15.9212 139.18 16.1413C139.699 16.3615 140.221 16.5462 140.746 16.6953L143.048 17.3558C143.744 17.5476 144.44 17.7926 145.136 18.0909C145.832 18.3892 146.467 18.7656 147.043 19.2202C147.625 19.6676 148.09 20.218 148.438 20.8714C148.793 21.5178 148.971 22.2955 148.971 23.2045C148.971 24.3693 148.669 25.4169 148.065 26.3473C147.462 27.2777 146.595 28.0163 145.466 28.5632C144.337 29.103 142.984 29.3729 141.407 29.3729C139.923 29.3729 138.634 29.1278 137.54 28.6378C136.446 28.1406 135.587 27.4553 134.962 26.5817C134.337 25.7081 133.985 24.696 133.907 23.5455H135.952C136.023 24.4048 136.308 25.1328 136.805 25.7294C137.302 26.326 137.948 26.7805 138.744 27.093C139.539 27.3984 140.427 27.5511 141.407 27.5511C142.494 27.5511 143.46 27.37 144.305 27.0078C145.157 26.6385 145.825 26.1271 146.308 25.4737C146.798 24.8132 147.043 24.0462 147.043 23.1726C147.043 22.4339 146.851 21.8161 146.467 21.3189C146.084 20.8146 145.548 20.392 144.859 20.0511C144.177 19.7102 143.385 19.4084 142.483 19.1456L139.873 18.3786C138.161 17.8672 136.833 17.1605 135.888 16.2585C134.944 15.3565 134.472 14.206 134.472 12.8068C134.472 11.6349 134.784 10.6051 135.409 9.71733C136.041 8.82244 136.893 8.12642 137.966 7.62926C139.045 7.125 140.256 6.87287 141.599 6.87287C142.955 6.87287 144.156 7.12145 145.2 7.61861C146.244 8.11577 147.071 8.80114 147.682 9.67471C148.3 10.5412 148.63 11.5284 148.673 12.6364H146.744ZM155.757 7.18182V29H153.765V7.18182H155.757ZM161.558 29V7.18182H174.182V8.97159H163.55V17.1854H173.191V18.9751H163.55V29H161.558ZM177.091 7.18182H179.392L185.858 17.5369H186.05L192.517 7.18182H194.818L186.945 19.5504V29H184.963V19.5504L177.091 7.18182Z" fill="#1A3066"/>
<path d="M99 29L104.081 18.5M129 29L121.742 17.8C128.334 17.0734 128.114 10.8206 125.143 8.55501C124.548 8.10197 123.778 8 123.031 8H109.161L104.081 18.5M104.081 18.5H109.161" stroke="#1A3066" stroke-width="2"/>
<path d="M48.9961 24.3581V12.4211C48.9961 9.54739 47.2357 8.22106 45.0187 8H15.3103C13.8323 8.14737 11.2753 9.5916 11.0979 12.4211C10.9206 15.2506 11.024 21.5581 11.0979 24.3581C11.024 25.6107 11.763 28.2045 15.3103 28.5581H25.255C25.5558 28.5581 25.8406 28.4227 26.0305 28.1895L29.4063 24.0429C29.4295 24.0143 29.455 23.9877 29.4824 23.9631V23.9631C29.7689 23.7068 30.2086 23.7294 30.4672 24.0139L34.301 28.2308C34.4905 28.4393 34.7592 28.5581 35.0409 28.5581H45.0187C47.1245 28.5581 48.8302 27.0824 48.9961 24.3581ZM48.9961 24.3581C49.0049 24.2142 48.9961 24.5089 48.9961 24.3581Z" stroke="#1A3066" stroke-width="2"/>
<ellipse cx="19.9412" cy="16" rx="3.35294" ry="3" stroke="#1A3066"/>
<ellipse cx="40.0589" cy="16" rx="3.35294" ry="3" stroke="#1A3066"/>
<path d="M93.9961 24.3581V12.4211C93.9961 9.54739 92.2357 8.22106 90.0187 8H60.3103C58.8323 8.14737 56.2753 9.5916 56.0979 12.4211C55.9206 15.2506 56.024 21.5581 56.0979 24.3581C56.024 25.6107 56.763 28.2045 60.3103 28.5581H70.255C70.5558 28.5581 70.8406 28.4227 71.0305 28.1895L74.4063 24.0429C74.4295 24.0143 74.455 23.9877 74.4824 23.9631V23.9631C74.7689 23.7068 75.2086 23.7294 75.4672 24.0139L79.301 28.2308C79.4905 28.4393 79.7592 28.5581 80.0409 28.5581H90.0187C92.1245 28.5581 93.8302 27.0824 93.9961 24.3581ZM93.9961 24.3581C94.0049 24.2142 93.9961 24.5089 93.9961 24.3581Z" stroke="#1A3066" stroke-width="2"/>
<ellipse cx="64.9412" cy="16" rx="3.35294" ry="3" stroke="#1A3066"/>
<ellipse cx="85.0588" cy="16" rx="3.35294" ry="3" stroke="#1A3066"/>
</svg>
