<svg width="452" height="197" viewBox="0 0 452 197" fill="none" xmlns="http://www.w3.org/2000/svg">
<g clip-path="url(#clip0_302_34)">
<rect width="452" height="197" fill="none"/>
<path d="M452 0H0V197H452V0Z" fill="none"/>
<path d="M87.8459 81.4545V112H85.0568V81.4545H87.8459Z" fill="white"/>
<path d="M295.642 90.0909C295.473 88.3906 294.722 87.0384 293.39 86.0341C292.058 85.0298 290.382 84.5277 288.364 84.5277C286.942 84.5277 285.689 84.7713 284.605 85.2585C283.531 85.7457 282.686 86.4219 282.07 87.2869C281.463 88.142 281.16 89.1165 281.16 90.2102C281.16 91.0156 281.334 91.7216 281.682 92.3281C282.03 92.9347 282.497 93.4567 283.084 93.8942C283.68 94.3217 284.337 94.6896 285.053 94.9979C285.778 95.3061 286.509 95.5646 287.245 95.7734L290.467 96.6982C291.441 96.9666 292.415 97.3097 293.39 97.7273C294.364 98.1449 295.254 98.6719 296.06 99.3082C296.875 99.9347 297.526 100.705 298.013 101.62C298.511 102.525 298.759 103.614 298.759 104.886C298.759 106.517 298.337 107.984 297.491 109.286C296.646 110.589 295.433 111.623 293.852 112.388C292.271 113.144 290.377 113.522 288.17 113.522C286.092 113.522 284.287 113.179 282.756 112.493C281.224 111.797 280.021 110.837 279.146 109.614C278.271 108.391 277.779 106.974 277.67 105.364H280.533C280.633 106.567 281.031 107.586 281.727 108.421C282.423 109.256 283.327 109.893 284.441 110.33C285.555 110.758 286.798 110.972 288.17 110.972C289.691 110.972 291.043 110.718 292.227 110.211C293.42 109.694 294.354 108.978 295.031 108.063C295.717 107.138 296.06 106.065 296.06 104.842C296.06 103.808 295.791 102.942 295.254 102.246C294.717 101.54 293.967 100.949 293.002 100.472C292.048 99.9943 290.939 99.5717 289.676 99.2038L286.022 98.13C283.626 97.4141 281.766 96.4247 280.444 95.1619C279.121 93.8991 278.46 92.2884 278.46 90.3295C278.46 88.6889 278.898 87.2472 279.773 86.0043C280.658 84.7514 281.851 83.777 283.352 83.081C284.864 82.375 286.559 82.022 288.438 82.022C290.337 82.022 292.018 82.37 293.479 83.0661C294.941 83.7621 296.099 84.7216 296.955 85.9446C297.82 87.1577 298.282 88.5398 298.342 90.0909H295.642ZM308.26 82.4545V113H305.471V82.4545H308.26ZM316.381 113V82.4545H334.055V84.9602H319.17V96.4595H332.668V98.9652H319.17V113H316.381ZM338.127 82.4545H341.348L350.402 96.9517H350.67L359.723 82.4545H362.945L351.923 99.7706V113H349.149V99.7706L338.127 82.4545Z" fill="white"/>
<path d="M225 113L232.621 97.5M232.621 97.5L240.242 82H261.628C262.364 82 263.112 82.1083 263.738 82.495C268.636 85.5178 269.341 95.3572 259.113 96.4667L270 113M232.621 97.5H240.242" stroke="white" stroke-width="2.5"/>
<path d="M150.832 106.208V88.4638C150.832 84.192 148.215 82.2204 144.92 81.8918H100.759C98.5617 82.1109 94.7608 84.2577 94.4971 88.4638C94.2335 92.6698 94.3873 102.046 94.4971 106.208C94.3873 108.07 95.4858 111.925 100.759 112.451H115.773C116.074 112.451 116.358 112.316 116.548 112.083L121.714 105.737C121.747 105.696 121.784 105.658 121.823 105.623L121.855 105.594C122.265 105.228 122.893 105.26 123.262 105.666L129.133 112.124C129.322 112.332 129.591 112.451 129.873 112.451H144.92C148.05 112.451 150.586 110.258 150.832 106.208ZM150.832 106.208C150.832 106.432 150.845 105.994 150.832 106.208Z" stroke="white" stroke-width="2.5"/>
<path d="M107.64 98.2432C110.393 98.2432 112.624 96.2466 112.624 93.7837C112.624 91.3208 110.393 89.3242 107.64 89.3242C104.887 89.3242 102.656 91.3208 102.656 93.7837C102.656 96.2466 104.887 98.2432 107.64 98.2432Z" stroke="white" stroke-width="1.5"/>
<path d="M137.547 98.2432C140.3 98.2432 142.531 96.2466 142.531 93.7837C142.531 91.3208 140.3 89.3242 137.547 89.3242C134.794 89.3242 132.563 91.3208 132.563 93.7837C132.563 96.2466 134.794 98.2432 137.547 98.2432Z" stroke="white" stroke-width="1.5"/>
<path d="M217.723 106.208V88.4638C217.723 84.192 215.106 82.2204 211.81 81.8918H167.649C165.452 82.1109 161.651 84.2577 161.388 88.4638C161.124 92.6698 161.278 102.046 161.388 106.208C161.278 108.07 162.376 111.925 167.649 112.451H182.663C182.964 112.451 183.249 112.316 183.439 112.083L188.605 105.737C188.638 105.696 188.674 105.658 188.714 105.623L188.746 105.594C189.155 105.228 189.783 105.26 190.153 105.666L196.024 112.124C196.213 112.332 196.482 112.451 196.764 112.451H211.81C214.941 112.451 217.476 110.258 217.723 106.208ZM217.723 106.208C217.723 106.432 217.736 105.994 217.723 106.208Z" stroke="white" stroke-width="2.5"/>
<path d="M174.535 98.2432C177.288 98.2432 179.519 96.2466 179.519 93.7837C179.519 91.3208 177.288 89.3242 174.535 89.3242C171.782 89.3242 169.551 91.3208 169.551 93.7837C169.551 96.2466 171.782 98.2432 174.535 98.2432Z" stroke="white" stroke-width="1.5"/>
<path d="M204.437 98.2432C207.19 98.2432 209.421 96.2466 209.421 93.7837C209.421 91.3208 207.19 89.3242 204.437 89.3242C201.684 89.3242 199.453 91.3208 199.453 93.7837C199.453 96.2466 201.684 98.2432 204.437 98.2432Z" stroke="white" stroke-width="1.5"/>
</g>
<defs>
<clipPath id="clip0_302_34">
<rect width="452" height="197" fill="white"/>
</clipPath>
</defs>
</svg>
