<svg width="30" height="17" viewBox="0 0 30 17" fill="none" xmlns="http://www.w3.org/2000/svg">
<path d="M28.7234 12.9355V4.22581C28.7234 2.12903 27.439 1.16129 25.8213 1H4.14497C3.06654 1.10753 1.20087 2.16129 1.07146 4.22581C0.942045 6.29032 1.01753 10.8925 1.07145 12.9355C1.01753 13.8495 1.55674 15.7419 4.14497 16H11.2725C11.5733 16 11.8581 15.8646 12.048 15.6313L14.4299 12.7055C14.4469 12.6847 14.4654 12.6652 14.4854 12.6473V12.6473C14.6945 12.4602 15.0153 12.4768 15.204 12.6844L17.9209 15.6727C18.1104 15.8812 18.379 16 18.6608 16H25.8213C27.3578 16 28.6024 14.9232 28.7234 12.9355ZM28.7234 12.9355C28.7298 12.8305 28.7234 13.0455 28.7234 12.9355Z" stroke="white"/>
<ellipse cx="7.52505" cy="6.83638" rx="2.44643" ry="2.18891" stroke="white"/>
<ellipse cx="22.2023" cy="6.83638" rx="2.44643" ry="2.18891" stroke="white"/>
</svg>
