<svg width="360" height="800" viewBox="0 0 360 800" fill="none" xmlns="http://www.w3.org/2000/svg">
<g clip-path="url(#clip0_12_185)">
<rect width="360" height="800" fill="white"/>
<ellipse cx="180" cy="762.5" rx="5" ry="5.5" fill="white"/>
<path fill-rule="evenodd" clip-rule="evenodd" d="M15 13V18H16H17V13V8H16H15V13ZM11 14.5625V18H12H13V14.5625V11.125H12H11V14.5625ZM7 16.125V18H8H9V16.125V14.25H8H7V16.125Z" fill="black"/>
<path d="M32.09 17.09C31.3367 17.09 30.7 16.9467 30.18 16.66C29.6667 16.3733 29.2767 15.96 29.01 15.42C28.7433 14.88 28.61 14.2333 28.61 13.48C28.61 12.92 28.6833 12.4167 28.83 11.97C28.9833 11.5233 29.2033 11.1467 29.49 10.84C29.7833 10.5267 30.1367 10.2867 30.55 10.12C30.97 9.94667 31.4433 9.86 31.97 9.86C32.39 9.86 32.7967 9.92 33.19 10.04C33.5833 10.1533 33.9333 10.3367 34.24 10.59C34.32 10.65 34.37 10.7167 34.39 10.79C34.41 10.8633 34.4067 10.9367 34.38 11.01C34.36 11.0833 34.3233 11.1467 34.27 11.2C34.2233 11.2467 34.16 11.2733 34.08 11.28C34.0067 11.2867 33.93 11.2633 33.85 11.21C33.5767 10.9967 33.2867 10.8433 32.98 10.75C32.6733 10.65 32.3333 10.6 31.96 10.6C31.4267 10.6 30.9733 10.7133 30.6 10.94C30.2333 11.1667 29.9533 11.4933 29.76 11.92C29.5733 12.3467 29.48 12.8667 29.48 13.48C29.48 14.4133 29.6967 15.1267 30.13 15.62C30.57 16.1133 31.23 16.36 32.11 16.36C32.43 16.36 32.7433 16.33 33.05 16.27C33.3567 16.2033 33.6467 16.1133 33.92 16L33.74 16.47V13.98H32.31C32.19 13.98 32.1 13.95 32.04 13.89C31.98 13.83 31.95 13.75 31.95 13.65C31.95 13.5433 31.98 13.4633 32.04 13.41C32.1 13.3567 32.19 13.33 32.31 13.33H34.1C34.2133 13.33 34.3 13.36 34.36 13.42C34.42 13.48 34.45 13.5667 34.45 13.68V16.29C34.45 16.39 34.4333 16.4733 34.4 16.54C34.3667 16.6067 34.31 16.6567 34.23 16.69C33.95 16.8033 33.6133 16.9 33.22 16.98C32.8333 17.0533 32.4567 17.09 32.09 17.09ZM38.4059 17.09C38.0925 17.09 37.7859 17.0633 37.4859 17.01C37.1859 16.9567 36.9059 16.88 36.6459 16.78C36.3925 16.68 36.1625 16.5533 35.9559 16.4C35.8759 16.34 35.8192 16.2733 35.7859 16.2C35.7592 16.12 35.7525 16.0433 35.7659 15.97C35.7859 15.89 35.8192 15.8233 35.8659 15.77C35.9192 15.7167 35.9825 15.6867 36.0559 15.68C36.1292 15.6733 36.2092 15.6967 36.2959 15.75C36.5959 15.9633 36.9159 16.12 37.2559 16.22C37.5959 16.3133 37.9792 16.36 38.4059 16.36C39.0059 16.36 39.4492 16.25 39.7359 16.03C40.0292 15.8033 40.1759 15.5067 40.1759 15.14C40.1759 14.84 40.0692 14.6067 39.8559 14.44C39.6492 14.2667 39.2992 14.13 38.8059 14.03L37.7659 13.82C37.1392 13.6867 36.6692 13.47 36.3559 13.17C36.0492 12.8633 35.8959 12.4567 35.8959 11.95C35.8959 11.6367 35.9592 11.3533 36.0859 11.1C36.2125 10.84 36.3892 10.62 36.6159 10.44C36.8425 10.2533 37.1125 10.11 37.4259 10.01C37.7392 9.91 38.0859 9.86 38.4659 9.86C38.8859 9.86 39.2759 9.92 39.6359 10.04C40.0025 10.1533 40.3325 10.3267 40.6259 10.56C40.6992 10.62 40.7492 10.69 40.7759 10.77C40.8025 10.8433 40.8059 10.9167 40.7859 10.99C40.7659 11.0567 40.7292 11.1133 40.6759 11.16C40.6292 11.2067 40.5659 11.2333 40.4859 11.24C40.4125 11.2467 40.3292 11.22 40.2359 11.16C39.9692 10.96 39.6925 10.8167 39.4059 10.73C39.1192 10.6367 38.8025 10.59 38.4559 10.59C38.1025 10.59 37.7959 10.6433 37.5359 10.75C37.2825 10.8567 37.0825 11.0133 36.9359 11.22C36.7959 11.42 36.7259 11.6533 36.7259 11.92C36.7259 12.24 36.8225 12.4933 37.0159 12.68C37.2159 12.8667 37.5392 13.0033 37.9859 13.09L39.0259 13.31C39.6992 13.45 40.1959 13.6633 40.5159 13.95C40.8425 14.23 41.0059 14.6133 41.0059 15.1C41.0059 15.3933 40.9459 15.6633 40.8259 15.91C40.7059 16.1567 40.5325 16.37 40.3059 16.55C40.0792 16.7233 39.8059 16.8567 39.4859 16.95C39.1659 17.0433 38.8059 17.09 38.4059 17.09Z" fill="black"/>
<path fill-rule="evenodd" clip-rule="evenodd" d="M56.2998 8.15995C55.0496 8.42913 53.5296 9.24708 52.3099 10.3067L52 10.5761L52.5479 11.1501L53.0958 11.724L53.4713 11.4025C54.9168 10.1642 56.201 9.68895 58.0716 9.7005C59.8525 9.71147 61.1159 10.1938 62.5383 11.406L62.9162 11.7281L63.4581 11.1467L64 10.5652L63.2846 9.96647C61.3696 8.36334 58.6371 7.65666 56.2998 8.15995ZM57.147 11.3963C56.2152 11.5313 55.4005 11.9001 54.7056 12.5016L54.2018 12.9376L54.7433 13.5049C55.2073 13.9911 55.3184 14.0461 55.5197 13.8895C57.0672 12.6863 58.9387 12.687 60.49 13.8914C60.6952 14.0508 60.8034 13.9948 61.2828 13.4804L61.8379 12.8848L61.1132 12.3574C59.9376 11.5018 58.6211 11.1827 57.147 11.3963ZM56.9348 14.9047L56.3433 15.2189L57.1733 16.1094L58.0035 17L58.8351 16.1078L59.6666 15.2157L59.0646 14.9029C58.3014 14.5067 57.6836 14.5071 56.9348 14.9047Z" fill="black"/>
<path d="M312.838 15C312.73 15 312.646 14.973 312.586 14.919C312.526 14.859 312.496 14.778 312.496 14.676C312.496 14.574 312.526 14.499 312.586 14.451C312.646 14.397 312.73 14.37 312.838 14.37H314.008V9.267H314.395L313.09 10.131C313.012 10.173 312.937 10.191 312.865 10.185C312.799 10.179 312.742 10.155 312.694 10.113C312.652 10.065 312.622 10.011 312.604 9.951C312.586 9.885 312.589 9.819 312.613 9.753C312.637 9.681 312.688 9.621 312.766 9.573L314.008 8.754C314.086 8.706 314.161 8.667 314.233 8.637C314.305 8.607 314.377 8.592 314.449 8.592C314.533 8.592 314.602 8.619 314.656 8.673C314.716 8.721 314.746 8.799 314.746 8.907V14.37H315.826C315.934 14.37 316.018 14.397 316.078 14.451C316.138 14.499 316.168 14.574 316.168 14.676C316.168 14.784 316.138 14.865 316.078 14.919C316.018 14.973 315.934 15 315.826 15H312.838ZM319.54 15.081C318.814 15.081 318.262 14.802 317.884 14.244C317.506 13.686 317.317 12.879 317.317 11.823C317.317 11.115 317.401 10.521 317.569 10.041C317.737 9.555 317.986 9.189 318.316 8.943C318.652 8.697 319.06 8.574 319.54 8.574C320.272 8.574 320.824 8.85 321.196 9.402C321.574 9.948 321.763 10.752 321.763 11.814C321.763 12.522 321.679 13.119 321.511 13.605C321.343 14.091 321.094 14.46 320.764 14.712C320.434 14.958 320.026 15.081 319.54 15.081ZM319.54 14.442C320.044 14.442 320.416 14.229 320.656 13.803C320.902 13.371 321.025 12.708 321.025 11.814C321.025 10.914 320.902 10.257 320.656 9.843C320.416 9.423 320.044 9.213 319.54 9.213C319.042 9.213 318.67 9.423 318.424 9.843C318.178 10.263 318.055 10.92 318.055 11.814C318.055 12.708 318.178 13.371 318.424 13.803C318.67 14.229 319.042 14.442 319.54 14.442ZM324.936 15.081C324.21 15.081 323.658 14.802 323.28 14.244C322.902 13.686 322.713 12.879 322.713 11.823C322.713 11.115 322.797 10.521 322.965 10.041C323.133 9.555 323.382 9.189 323.712 8.943C324.048 8.697 324.456 8.574 324.936 8.574C325.668 8.574 326.22 8.85 326.592 9.402C326.97 9.948 327.159 10.752 327.159 11.814C327.159 12.522 327.075 13.119 326.907 13.605C326.739 14.091 326.49 14.46 326.16 14.712C325.83 14.958 325.422 15.081 324.936 15.081ZM324.936 14.442C325.44 14.442 325.812 14.229 326.052 13.803C326.298 13.371 326.421 12.708 326.421 11.814C326.421 10.914 326.298 10.257 326.052 9.843C325.812 9.423 325.44 9.213 324.936 9.213C324.438 9.213 324.066 9.423 323.82 9.843C323.574 10.263 323.451 10.92 323.451 11.814C323.451 12.708 323.574 13.371 323.82 13.803C324.066 14.229 324.438 14.442 324.936 14.442ZM330.333 15.009C330.291 15.087 330.24 15.138 330.18 15.162C330.12 15.192 330.06 15.198 330 15.18C329.94 15.168 329.889 15.138 329.847 15.09C329.805 15.048 329.778 14.994 329.766 14.928C329.76 14.862 329.778 14.79 329.82 14.712L333.294 8.664C333.336 8.586 333.387 8.535 333.447 8.511C333.507 8.481 333.567 8.475 333.627 8.493C333.687 8.505 333.738 8.535 333.78 8.583C333.822 8.631 333.846 8.688 333.852 8.754C333.864 8.82 333.849 8.889 333.807 8.961L330.333 15.009ZM329.667 12.462C329.187 12.462 328.812 12.291 328.542 11.949C328.272 11.607 328.137 11.13 328.137 10.518C328.137 10.11 328.197 9.762 328.317 9.474C328.443 9.186 328.62 8.967 328.848 8.817C329.076 8.661 329.349 8.583 329.667 8.583C330.141 8.583 330.513 8.754 330.783 9.096C331.059 9.432 331.197 9.906 331.197 10.518C331.197 10.926 331.134 11.274 331.008 11.562C330.888 11.85 330.714 12.072 330.486 12.228C330.258 12.384 329.985 12.462 329.667 12.462ZM329.667 11.931C329.853 11.931 330.012 11.877 330.144 11.769C330.282 11.661 330.387 11.502 330.459 11.292C330.531 11.082 330.567 10.824 330.567 10.518C330.567 10.05 330.486 9.699 330.324 9.465C330.162 9.231 329.943 9.114 329.667 9.114C329.481 9.114 329.319 9.168 329.181 9.276C329.049 9.378 328.947 9.534 328.875 9.744C328.803 9.948 328.767 10.206 328.767 10.518C328.767 10.986 328.845 11.34 329.001 11.58C329.163 11.814 329.385 11.931 329.667 11.931ZM333.969 15.081C333.495 15.081 333.12 14.91 332.844 14.568C332.574 14.226 332.439 13.749 332.439 13.137C332.439 12.729 332.499 12.381 332.619 12.093C332.745 11.805 332.922 11.586 333.15 11.436C333.384 11.28 333.657 11.202 333.969 11.202C334.449 11.202 334.824 11.373 335.094 11.715C335.364 12.051 335.499 12.525 335.499 13.137C335.499 13.545 335.439 13.896 335.319 14.19C335.199 14.478 335.025 14.7 334.797 14.856C334.569 15.006 334.293 15.081 333.969 15.081ZM333.969 14.55C334.161 14.55 334.323 14.499 334.455 14.397C334.587 14.289 334.689 14.13 334.761 13.92C334.833 13.71 334.869 13.449 334.869 13.137C334.869 12.669 334.788 12.318 334.626 12.084C334.47 11.85 334.251 11.733 333.969 11.733C333.783 11.733 333.621 11.787 333.483 11.895C333.351 11.997 333.249 12.153 333.177 12.363C333.111 12.567 333.078 12.825 333.078 13.137C333.078 13.611 333.156 13.965 333.312 14.199C333.474 14.433 333.693 14.55 333.969 14.55Z" fill="black"/>
<path fill-rule="evenodd" clip-rule="evenodd" d="M355.25 10C354.516 10 354.5 9.98733 354.5 9.40917C354.5 9.004 354.355 8.68967 354.04 8.40917L353.58 8L347.75 8L341.92 8L341.46 8.40917C341.004 8.81483 341 8.844 341 12C341 15.156 341.004 15.1852 341.46 15.5908L341.92 16L347.75 16L353.58 16L354.04 15.5908C354.355 15.3103 354.5 14.996 354.5 14.5908C354.5 14.0127 354.516 14 355.25 14L356 14L356 12L356 10L355.25 10Z" fill="black"/>
<g filter="url(#filter0_d_12_185)">
<path d="M99.2587 487.753C77.1569 513.323 17.7937 516.273 -7 514.798V800H374.469L375 265C370.75 288.603 362.568 342.791 280.961 323.516C178.953 299.421 126.886 455.79 99.2587 487.753Z" fill="url(#paint0_linear_12_185)" shape-rendering="crispEdges"/>
</g>
<g filter="url(#filter1_d_12_185)">
<path d="M45.8459 589.455V620H43.0568V589.455H45.8459Z" fill="white"/>
<path d="M253.642 598.091C253.473 596.391 252.722 595.038 251.39 594.034C250.058 593.03 248.382 592.528 246.364 592.528C244.942 592.528 243.689 592.771 242.605 593.259C241.531 593.746 240.686 594.422 240.07 595.287C239.463 596.142 239.16 597.116 239.16 598.21C239.16 599.016 239.334 599.722 239.682 600.328C240.03 600.935 240.497 601.457 241.084 601.894C241.68 602.322 242.337 602.69 243.053 602.998C243.778 603.306 244.509 603.565 245.245 603.773L248.467 604.698C249.441 604.967 250.415 605.31 251.39 605.727C252.364 606.145 253.254 606.672 254.06 607.308C254.875 607.935 255.526 608.705 256.013 609.62C256.511 610.525 256.759 611.614 256.759 612.886C256.759 614.517 256.337 615.984 255.491 617.286C254.646 618.589 253.433 619.623 251.852 620.388C250.271 621.144 248.377 621.522 246.17 621.522C244.092 621.522 242.287 621.179 240.756 620.493C239.224 619.797 238.021 618.837 237.146 617.614C236.271 616.391 235.779 614.974 235.67 613.364H238.533C238.633 614.567 239.031 615.586 239.727 616.421C240.423 617.256 241.327 617.893 242.441 618.33C243.555 618.758 244.798 618.972 246.17 618.972C247.691 618.972 249.043 618.718 250.227 618.211C251.42 617.694 252.354 616.978 253.031 616.063C253.717 615.138 254.06 614.065 254.06 612.842C254.06 611.808 253.791 610.942 253.254 610.246C252.717 609.54 251.967 608.949 251.002 608.472C250.048 607.994 248.939 607.572 247.676 607.204L244.022 606.13C241.626 605.414 239.766 604.425 238.444 603.162C237.121 601.899 236.46 600.288 236.46 598.33C236.46 596.689 236.898 595.247 237.773 594.004C238.658 592.751 239.851 591.777 241.352 591.081C242.864 590.375 244.559 590.022 246.438 590.022C248.337 590.022 250.018 590.37 251.479 591.066C252.941 591.762 254.099 592.722 254.955 593.945C255.82 595.158 256.282 596.54 256.342 598.091H253.642ZM266.26 590.455V621H263.471V590.455H266.26ZM274.381 621V590.455H292.055V592.96H277.17V604.46H290.668V606.965H277.17V621H274.381ZM296.127 590.455H299.348L308.402 604.952H308.67L317.723 590.455H320.945L309.923 607.771V621H307.149V607.771L296.127 590.455Z" fill="white"/>
<path d="M183 621L190.621 605.5M228 621L217.113 604.467C227.341 603.357 226.636 593.518 221.738 590.495C221.112 590.108 220.364 590 219.628 590H198.242L190.621 605.5M190.621 605.5H198.242" stroke="white" stroke-width="2.5"/>
<path d="M108.832 614.208V596.464C108.832 592.192 106.215 590.22 102.92 589.892H58.7586C56.5615 590.111 52.7606 592.258 52.4969 596.464C52.2333 600.67 52.3871 610.046 52.4969 614.208C52.3871 616.07 53.4856 619.925 58.7586 620.451H73.7725C74.0733 620.451 74.3581 620.316 74.548 620.083L79.7141 613.737C79.7472 613.696 79.7836 613.658 79.8228 613.623L79.8552 613.594C80.2645 613.228 80.8925 613.26 81.262 613.666L87.1327 620.124C87.3223 620.332 87.5909 620.451 87.8727 620.451H102.92C106.05 620.451 108.586 618.258 108.832 614.208ZM108.832 614.208C108.845 613.994 108.832 614.432 108.832 614.208Z" stroke="white" stroke-width="2.5"/>
<ellipse cx="65.6401" cy="601.784" rx="4.9841" ry="4.45946" stroke="white" stroke-width="1.5"/>
<ellipse cx="95.5464" cy="601.784" rx="4.9841" ry="4.45946" stroke="white" stroke-width="1.5"/>
<path d="M175.723 614.208V596.464C175.723 592.192 173.106 590.22 169.811 589.892H125.65C123.453 590.111 119.652 592.258 119.388 596.464C119.124 600.67 119.278 610.046 119.388 614.208C119.278 616.07 120.377 619.925 125.65 620.451H140.664C140.964 620.451 141.249 620.316 141.439 620.083L146.605 613.737C146.638 613.696 146.675 613.658 146.714 613.623L146.746 613.594C147.156 613.228 147.784 613.26 148.153 613.666L154.024 620.124C154.213 620.332 154.482 620.451 154.764 620.451H169.811C172.941 620.451 175.477 618.258 175.723 614.208ZM175.723 614.208C175.736 613.994 175.723 614.432 175.723 614.208Z" stroke="white" stroke-width="2.5"/>
<ellipse cx="132.535" cy="601.784" rx="4.9841" ry="4.45946" stroke="white" stroke-width="1.5"/>
<ellipse cx="162.437" cy="601.784" rx="4.9841" ry="4.45946" stroke="white" stroke-width="1.5"/>
</g>
<g clip-path="url(#clip1_12_185)">
<path d="M140.072 81.1753H188.515C190.455 81.1753 192.031 82.7525 192.031 84.6942V109.215C192.031 111.156 190.455 112.734 188.515 112.734H140.072C138.131 112.734 136.555 111.156 136.555 109.215V84.6942C136.555 82.7525 138.131 81.1753 140.072 81.1753Z" stroke="#B88FF9" stroke-width="0.5" stroke-miterlimit="10"/>
<path d="M185.516 83.124H143.069C141.367 83.124 139.987 84.5049 139.987 86.2084V107.694C139.987 109.397 141.367 110.778 143.069 110.778H185.516C187.218 110.778 188.598 109.397 188.598 107.694V86.2084C188.598 84.5049 187.218 83.124 185.516 83.124Z" fill="#B88FF9"/>
<path d="M179.275 92.7906H149.312C148.759 92.7906 148.311 92.342 148.311 91.7882C148.311 91.2344 148.759 90.7858 149.312 90.7858H179.275C179.828 90.7858 180.277 91.2344 180.277 91.7882C180.277 92.342 179.828 92.7906 179.275 92.7906Z" fill="white"/>
<path d="M179.275 98.4545H149.312C148.759 98.4545 148.311 98.0059 148.311 97.4521C148.311 96.8983 148.759 96.4497 149.312 96.4497H179.275C179.828 96.4497 180.277 96.8983 180.277 97.4521C180.277 98.0059 179.828 98.4545 179.275 98.4545Z" fill="white"/>
<path d="M160.857 102.114H149.312C148.759 102.114 148.311 102.561 148.311 103.113C148.311 103.664 148.759 104.111 149.312 104.111H160.857C161.411 104.111 161.859 103.664 161.859 103.113C161.859 102.561 161.411 102.114 160.857 102.114Z" fill="white"/>
<path d="M139.988 85.5004L135.504 147.468L187.625 109.937" stroke="#B88FF9" stroke-width="0.5" stroke-miterlimit="10"/>
<path d="M177.46 127.265L134.012 148.975L183.891 153.826" stroke="url(#paint1_linear_12_185)" stroke-width="0.5" stroke-miterlimit="10"/>
<path d="M195.632 148.875C200.639 142.675 199.674 133.588 193.478 128.578C187.282 123.568 178.2 124.532 173.193 130.732C168.186 136.933 169.15 146.02 175.347 151.03C181.543 156.04 190.625 155.075 195.632 148.875Z" fill="url(#paint2_radial_12_185)"/>
<path d="M199.941 148.272C204.618 139.69 201.458 128.938 192.882 124.258C184.305 119.577 173.56 122.739 168.882 131.321C164.204 139.903 167.365 150.654 175.941 155.335C184.518 160.016 195.263 156.854 199.941 148.272Z" stroke="url(#paint3_radial_12_185)" stroke-width="0.5" stroke-miterlimit="10"/>
<path d="M157.83 192.113L147.231 185.033L157.095 180.533L167.694 187.613L157.83 192.113Z" fill="url(#paint4_linear_12_185)"/>
<path d="M147.231 185.033L148.849 172.381L158.706 167.887L157.095 180.533L147.231 185.033Z" fill="url(#paint5_linear_12_185)"/>
<path d="M158.707 167.887L169.194 175.016L167.695 187.613L157.096 180.533L158.707 167.887Z" fill="url(#paint6_linear_12_185)"/>
<path d="M171.855 173.797L158.818 164.936L146.565 170.523L144.562 186.246L157.732 195.044L169.992 189.457L171.855 173.797Z" stroke="url(#paint7_linear_12_185)" stroke-width="0.36" stroke-miterlimit="10"/>
<path d="M169.993 189.457L212.894 147.243L158.819 164.936" stroke="url(#paint8_linear_12_185)" stroke-width="0.36" stroke-miterlimit="10"/>
<path d="M212.893 147.243L144.562 186.246" stroke="url(#paint9_linear_12_185)" stroke-width="0.36" stroke-miterlimit="10"/>
<path d="M191.374 240.846L169.201 242.108L178.224 225.515L200.39 224.261L191.374 240.846Z" fill="url(#paint10_linear_12_185)"/>
<path d="M169.2 242.108L158.209 222.803L167.225 206.21L178.223 225.515L169.2 242.108Z" fill="url(#paint11_linear_12_185)"/>
<path d="M167.224 206.21L189.292 205.145L200.388 224.261L178.223 225.515L167.224 206.21Z" fill="url(#paint12_linear_12_185)"/>
<path d="M191.715 200.651L164.289 201.983L153.087 222.606L166.747 246.594L194.3 245.031L205.509 224.415L191.715 200.651Z" stroke="url(#paint13_linear_12_185)" stroke-width="0.62" stroke-miterlimit="10"/>
<path d="M205.509 224.415L211.373 147.397L164.289 201.983" stroke="url(#paint14_linear_12_185)" stroke-width="0.62" stroke-miterlimit="10"/>
<path d="M211.373 147.397L166.748 246.594" stroke="url(#paint15_linear_12_185)" stroke-width="0.62" stroke-miterlimit="10"/>
<path opacity="0.4" d="M257.048 302C287.397 302 311.999 300.434 311.999 298.502C311.999 296.57 287.397 295.004 257.048 295.004C226.7 295.004 202.097 296.57 202.097 298.502C202.097 300.434 226.7 302 257.048 302Z" fill="#2F1756"/>
<path d="M283.206 195.885C283.206 195.885 284.845 208.551 281.279 209.302C277.714 210.052 276.712 190.936 276.712 190.936L283.206 171.82L280.6 170.102C282.239 167.397 284.656 162.658 284.838 157.912C290.183 163.05 294.261 168.161 294.688 169.654C295.564 172.696 283.206 195.878 283.206 195.878V195.885Z" fill="url(#paint16_linear_12_185)"/>
<path d="M259.044 146.928C259.044 146.928 250.063 149.094 250.07 148.968C250.07 148.912 249.846 147.566 249.615 146.199C249.37 144.741 249.11 143.248 249.11 143.248C249.11 143.248 244.494 145.182 243.387 143.794C242.287 142.406 241.678 139.553 241.678 139.553C241.678 139.553 239.912 139.133 239.821 138.789C239.723 138.446 240.592 135.88 240.949 135.123C241.306 134.359 240.977 130.574 241.544 127.609L249.236 126.466L256.522 127.798C256.522 127.798 257.923 133.798 257.657 137.079C257.391 140.359 259.044 146.921 259.044 146.921V146.928Z" fill="url(#paint17_linear_12_185)"/>
<path d="M247.793 150.713C247.793 150.713 248.164 147.194 248.914 146.844C249.664 146.493 258.322 143.591 259.611 144.362C260.9 145.133 261.279 149.178 261.363 149.297" fill="url(#paint18_linear_12_185)"/>
<path d="M241.194 124.202C238.259 123.298 236.676 125.344 238.455 127.16C240.234 128.976 247.03 129.557 247.03 129.557C247.03 129.557 248.83 134.212 249.503 134.639C250.175 135.067 249.047 129.845 252.053 129.894C255.051 129.943 254.568 135.004 251.885 135.705C251.885 135.705 253.636 139.434 255.52 140.423C257.405 141.411 260.004 140.233 261.041 137.142C262.078 134.051 264.256 128.751 260.536 128.246C264.361 125.295 259.598 120.15 254.133 120.55C248.669 120.949 241.664 117.76 240.094 119.141C238.525 120.522 238.7 122.996 241.194 124.202Z" fill="#261049"/>
<path d="M251.388 134.31C250.575 133.805 251.297 131.527 252.698 131.969" stroke="#CA4570" stroke-width="0.5" stroke-linecap="round" stroke-linejoin="round"/>
<path d="M244.626 134.92C244.675 135.355 244.43 135.733 244.08 135.775C243.729 135.81 243.414 135.488 243.365 135.053C243.316 134.619 243.561 134.24 243.911 134.198C244.262 134.163 244.577 134.485 244.626 134.92Z" fill="#33256D"/>
<path d="M242.449 133.153C242.449 133.153 243.198 131.878 245.083 132.838" stroke="#33256D" stroke-width="0.5" stroke-miterlimit="10" stroke-linecap="round"/>
<path d="M244.564 141.11C244.564 141.11 245.727 141.453 246.729 140.247" stroke="#CA4570" stroke-width="0.5" stroke-linecap="round" stroke-linejoin="round"/>
<path d="M249.614 146.199C249.369 144.741 249.11 143.248 249.11 143.248C251.443 142.399 252.199 141.201 252.199 141.201C252.199 141.201 252.108 144.79 249.621 146.199H249.614Z" fill="#CA4570"/>
<path d="M292.572 283.347H276.432L269.461 242.907L265.608 220.545L259.289 283.347H244.879C244.879 283.347 245.11 228.6 246.413 198.983C246.476 197.56 246.539 196.193 246.609 194.896L280.404 190.634L281.286 197.35L292.572 283.354V283.347Z" fill="#261049"/>
<path d="M244.871 283.347L227.539 297.198C227 297.633 227.301 298.502 227.995 298.502H259.337C259.757 298.502 260.094 298.152 260.066 297.731L259.274 283.347H244.864H244.871Z" fill="#65A8FF"/>
<path d="M230.815 294.566L227.464 297.248C226.926 297.492 227.309 298.589 228.001 298.589H259.402C259.821 298.589 260.233 298.213 260.205 297.977L259.936 294.759L230.815 294.566Z" fill="white"/>
<path d="M277.679 283.347L271.654 296.546C271.234 297.465 271.906 298.509 272.915 298.509H291.459C292.25 298.509 292.888 297.843 292.839 297.051L292.089 283.354H277.679V283.347Z" fill="#65A8FF"/>
<path d="M272.282 295.027C270.672 297.441 271.906 298.509 272.915 298.509H291.458C292.25 298.509 292.887 297.843 292.838 297.051L292.74 295.027H272.282Z" fill="white"/>
<path d="M284.839 157.912C284.664 162.658 282.247 167.397 280.601 170.102L271.101 163.85L262.625 160.702L266.856 145.869C272.488 147.306 279.34 152.62 284.839 157.905V157.912Z" fill="url(#paint19_linear_12_185)"/>
<path d="M281.279 197.343C272.08 203.098 257.11 203.652 246.405 198.983C246.468 197.56 246.531 196.193 246.601 194.896L280.396 190.634L281.279 197.35V197.343Z" fill="#150633"/>
<path d="M222.902 165.581C222.902 165.581 226.72 160.583 226.18 157.667C225.648 154.751 224.079 149.592 221.865 151.337C219.651 153.09 217.641 160.856 217.571 161.621C217.507 162.392 217.606 167.341 217.606 167.341L220.905 169.654" fill="url(#paint20_linear_12_185)"/>
<path d="M224.969 165.076L216.128 165.581C215.281 165.63 214.433 164.95 214.23 164.067L210.307 146.556C210.111 145.673 210.636 144.916 211.484 144.867L220.325 144.362C221.172 144.313 222.02 144.993 222.223 145.876L226.146 163.387C226.342 164.27 225.817 165.027 224.969 165.076Z" fill="#33256D"/>
<path d="M224.052 163.415L216.409 163.85C215.673 163.892 214.938 163.303 214.77 162.539L211.372 147.397C211.204 146.633 211.659 145.981 212.388 145.939L220.031 145.505C220.766 145.463 221.502 146.052 221.67 146.816L225.068 161.957C225.236 162.721 224.781 163.373 224.052 163.415Z" fill="white"/>
<path opacity="0.56" d="M226.511 161.004L218.868 161.438C218.133 161.48 217.397 160.891 217.229 160.127L213.831 144.986C213.663 144.222 214.119 143.57 214.847 143.528L222.49 143.093C223.226 143.051 223.961 143.64 224.129 144.404L227.527 159.546C227.695 160.31 227.24 160.962 226.511 161.004Z" fill="url(#paint21_linear_12_185)"/>
<path d="M214.917 168.245C214.917 168.245 210.987 162.77 210.987 160.52C210.987 158.27 212.171 153.335 213.733 153.896C215.295 154.456 213.985 159.202 213.985 159.202C213.985 159.202 220.851 164.95 221.663 167.446C222.476 169.941 220.725 171.133 220.725 171.133" fill="url(#paint22_linear_12_185)"/>
<path d="M280.999 191.896C280.999 192.646 255.45 197.56 251.787 198.562C248.123 199.558 246.042 198.394 246.294 195.892C246.399 194.847 245.867 190.291 245.208 185.335C244.333 178.69 243.226 171.336 243.142 170.775V170.74L239.156 178.185L229.873 169.24C231.548 164.053 233.712 158.003 235.226 155.999C238.056 152.255 254.953 147.426 254.953 147.426C269.517 143.675 271.85 147.173 275.178 153.174C278.505 159.167 280.999 191.153 280.999 191.903V191.896Z" fill="url(#paint23_linear_12_185)"/>
<path d="M239.148 178.185L230.924 193.564C229.102 196.971 224.086 196.523 222.895 192.849L214.916 168.245L222.02 165.875L222.902 165.581L223.134 166.205L227.316 177.575C227.316 177.575 228.409 173.734 229.866 169.24L239.148 178.185Z" fill="url(#paint24_linear_12_185)"/>
<path d="M227.316 177.575L225.649 182.405" stroke="#CA4570" stroke-width="0.5" stroke-linecap="round" stroke-linejoin="round"/>
<path d="M245.207 185.335C244.332 178.689 243.225 171.336 243.141 170.775V170.74L245.13 165.581C245.13 165.581 248.395 176.089 245.207 185.335Z" fill="url(#paint25_linear_12_185)"/>
<path d="M269.455 242.907L265.602 220.545C265.602 220.545 272.93 213.22 273.259 213.634C273.476 213.9 271.129 230.976 269.455 242.907Z" fill="#150633"/>
<path d="M125.801 282.639C118.782 273.393 119.777 257.901 120.652 258.406C121.528 258.91 128.765 274.648 128.765 274.648C128.765 274.648 126.894 253.162 131.14 247.288C135.385 241.414 134.509 277.395 134.509 277.395C134.509 277.395 139.126 264.778 143 265.528C146.867 266.278 142.503 284.405 136.38 287.588" fill="url(#paint26_linear_12_185)"/>
<path d="M141.438 280.515H122.159C120.533 280.515 119.3 281.987 119.581 283.592L121.843 296.343C122.068 297.591 123.153 298.502 124.421 298.502H139.175C140.443 298.502 141.529 297.591 141.753 296.343L144.016 283.592C144.303 281.987 143.07 280.515 141.438 280.515Z" fill="#5B3991"/>
<path opacity="0.4" d="M103.951 302C134.3 302 158.902 300.434 158.902 298.502C158.902 296.57 134.3 295.004 103.951 295.004C73.6024 295.004 49 296.57 49 298.502C49 300.434 73.6024 302 103.951 302Z" fill="#2F1756"/>
<path d="M100.491 175.458C100.743 175.388 110.663 183.758 113.913 184.753C117.164 185.748 130.944 163.527 130.944 163.527L129.718 154.232L113.248 168.953L106.46 163.857" fill="url(#paint27_linear_12_185)"/>
<path d="M77.3096 287.581L74.4163 291.759H60.5104L60.9728 283.347H75.3831L77.3096 287.581Z" fill="url(#paint28_linear_12_185)"/>
<path d="M60.4895 283.347H76.6301L83.6006 242.907L87.4536 220.545L93.7725 283.347H108.183C108.183 283.347 107.952 228.6 106.649 198.983C106.586 197.56 106.523 196.193 106.452 194.896L73.7368 182.405L71.7753 197.343L60.4895 283.347Z" fill="#261049"/>
<path d="M83.6069 242.907L87.4599 220.545C87.4599 220.545 80.1322 213.22 79.8029 213.634C79.5858 213.9 81.9326 230.976 83.6069 242.907Z" fill="#150633"/>
<path d="M125.074 298.502H93.7313C93.311 298.502 92.9817 298.152 93.0027 297.731L93.325 291.759L93.7873 283.347H108.198L114.418 288.317L125.529 297.198C126.069 297.633 125.76 298.502 125.074 298.502Z" fill="white"/>
<path d="M80.1467 298.502H61.6101C60.8115 298.502 60.181 297.836 60.2301 297.037L60.5173 291.751H74.4232L77.3164 287.574L81.4076 296.532C81.828 297.451 81.1555 298.495 80.1537 298.495L80.1467 298.502Z" fill="white"/>
<path d="M114.417 288.317L112.539 291.759H93.3162L93.7786 283.347H108.189L114.417 288.317Z" fill="url(#paint29_linear_12_185)"/>
<path d="M130.159 165.581C130.159 165.581 126.341 160.583 126.881 157.667C127.42 154.751 128.982 149.592 131.196 151.337C133.41 153.09 135.42 160.856 135.491 161.621C135.554 162.392 135.455 167.341 135.455 167.341L132.156 169.654" fill="url(#paint30_linear_12_185)"/>
<path d="M128.093 165.076L136.934 165.581C137.781 165.63 138.629 164.95 138.832 164.067L142.755 146.556C142.951 145.673 142.426 144.916 141.578 144.867L132.737 144.362C131.89 144.313 131.042 144.993 130.839 145.876L126.916 163.387C126.72 164.27 127.245 165.027 128.093 165.076Z" fill="#33256D"/>
<path d="M129.009 163.415L136.652 163.85C137.388 163.892 138.123 163.303 138.292 162.539L141.689 147.397C141.857 146.633 141.402 145.981 140.673 145.939L133.03 145.505C132.295 145.463 131.559 146.052 131.391 146.816L127.994 161.957C127.825 162.721 128.281 163.373 129.009 163.415Z" fill="white"/>
<path opacity="0.52" d="M125.359 161.004L133.002 161.438C133.738 161.48 134.473 160.891 134.641 160.127L138.039 144.986C138.207 144.222 137.752 143.57 137.023 143.528L129.38 143.093C128.645 143.051 127.909 143.64 127.741 144.404L124.343 159.546C124.175 160.31 124.631 160.962 125.359 161.004Z" fill="url(#paint31_linear_12_185)"/>
<path d="M138.145 168.245C138.145 168.245 142.075 162.77 142.075 160.52C142.075 158.27 140.891 153.335 139.329 153.896C137.766 154.456 139.076 159.202 139.076 159.202C139.076 159.202 132.211 164.95 131.398 167.446C130.586 169.941 132.337 171.133 132.337 171.133" fill="url(#paint32_linear_12_185)"/>
<path d="M73.0922 184.984C73.0922 185.734 98.6412 193.396 102.305 194.399C105.969 195.401 108.05 194.23 107.797 191.735C107.692 190.69 107.202 190.298 107.86 185.342C108.736 178.697 109.843 171.343 109.927 170.782V170.747L113.913 178.192L123.195 169.247C121.521 164.06 119.356 158.01 117.843 156.006C115.013 152.262 98.1158 147.433 98.1158 147.433C83.5514 143.682 81.2185 147.18 77.8909 153.181C74.5633 159.174 73.0922 184.248 73.0922 184.998V184.984Z" fill="url(#paint33_linear_12_185)"/>
<path d="M113.913 178.185L122.138 193.564C123.959 196.971 128.975 196.523 130.166 192.849L138.145 168.245L131.042 165.875L130.159 165.581L129.928 166.205L125.746 177.575C125.746 177.575 124.653 173.734 123.196 169.24L113.913 178.185Z" fill="url(#paint34_linear_12_185)"/>
<path d="M125.745 177.575L127.412 182.405" stroke="#CA4570" stroke-width="0.5" stroke-linecap="round" stroke-linejoin="round"/>
<path d="M107.853 185.335C108.728 178.689 109.835 171.336 109.919 170.775V170.74L107.93 165.581C107.93 165.581 104.665 176.089 107.853 185.335Z" fill="url(#paint35_linear_12_185)"/>
<path d="M94.0186 146.928C94.0186 146.928 103 149.094 102.993 148.968C102.993 148.912 103.217 147.566 103.448 146.199C103.693 144.741 103.952 143.248 103.952 143.248C103.952 143.248 108.569 145.182 109.676 143.794C110.776 142.406 111.385 139.553 111.385 139.553C111.385 139.553 113.151 139.133 113.242 138.789C113.34 138.446 112.471 135.88 112.114 135.123C111.756 134.359 112.086 130.574 111.518 127.609L103.826 126.466L96.5405 127.798C96.5405 127.798 95.1394 133.798 95.4056 137.079C95.6718 140.359 94.0186 146.921 94.0186 146.921V146.928Z" fill="url(#paint36_linear_12_185)"/>
<path d="M105.269 150.713C105.269 150.713 104.898 147.194 104.148 146.844C103.399 146.493 94.7401 143.591 93.4511 144.362C92.1621 145.133 91.7838 149.178 91.6997 149.297" fill="url(#paint37_linear_12_185)"/>
<path d="M101.675 134.31C102.488 133.805 101.766 131.527 100.365 131.969" stroke="#CA4570" stroke-width="0.5" stroke-linecap="round" stroke-linejoin="round"/>
<path d="M108.435 134.92C108.386 135.354 108.631 135.733 108.981 135.775C109.332 135.81 109.647 135.488 109.696 135.053C109.745 134.618 109.5 134.24 109.149 134.198C108.799 134.163 108.484 134.485 108.435 134.92Z" fill="#33256D"/>
<path d="M110.614 133.153C110.614 133.153 109.864 131.878 107.98 132.838" stroke="#33256D" stroke-width="0.5" stroke-miterlimit="10" stroke-linecap="round"/>
<path d="M108.499 141.11C108.499 141.11 107.336 141.453 106.334 140.247" stroke="#CA4570" stroke-width="0.5" stroke-linecap="round" stroke-linejoin="round"/>
<path d="M103.447 146.199C103.692 144.741 103.951 143.248 103.951 143.248C101.619 142.399 100.862 141.201 100.862 141.201C100.862 141.201 100.953 144.79 103.44 146.199H103.447Z" fill="#CA4570"/>
<path d="M106.796 127.77L103.209 132.845C103.076 131.485 102.691 129.873 101.017 129.894C98.0182 129.943 98.5016 135.004 101.185 135.712C101.185 135.712 101.185 135.719 101.185 135.726C96.4139 147.348 100.729 152.431 96.2388 158.922C91.7483 165.42 99.8396 174.329 91.7203 178.998C83.5939 183.659 69.7791 182.159 72.1049 166.338C74.4307 150.517 79.0964 147.748 78.8442 141.215C78.592 134.689 85.7516 134.261 86.9145 126.48C88.0354 118.958 99.8536 116.449 105.864 119.828C106.068 119.94 106.271 120.066 106.467 120.199C112.239 124.111 106.803 127.777 106.803 127.777L106.796 127.77Z" fill="#261049"/>
<path d="M103.63 119.645C113.241 118.566 116.576 122.975 114.95 127.307C113.325 131.639 105.045 129.095 105.045 129.095" fill="#261049"/>
</g>
</g>
<defs>
<filter id="filter0_d_12_185" x="-14.9" y="261.1" width="397.8" height="550.8" filterUnits="userSpaceOnUse" color-interpolation-filters="sRGB">
<feFlood flood-opacity="0" result="BackgroundImageFix"/>
<feColorMatrix in="SourceAlpha" type="matrix" values="0 0 0 0 0 0 0 0 0 0 0 0 0 0 0 0 0 0 127 0" result="hardAlpha"/>
<feOffset dy="4"/>
<feGaussianBlur stdDeviation="3.95"/>
<feComposite in2="hardAlpha" operator="out"/>
<feColorMatrix type="matrix" values="0 0 0 0 0 0 0 0 0 0 0 0 0 0 0 0 0 0 0.25 0"/>
<feBlend mode="normal" in2="BackgroundImageFix" result="effect1_dropShadow_12_185"/>
<feBlend mode="normal" in="SourceGraphic" in2="effect1_dropShadow_12_185" result="shape"/>
</filter>
<filter id="filter1_d_12_185" x="39.0568" y="588.642" width="285.888" height="42.0594" filterUnits="userSpaceOnUse" color-interpolation-filters="sRGB">
<feFlood flood-opacity="0" result="BackgroundImageFix"/>
<feColorMatrix in="SourceAlpha" type="matrix" values="0 0 0 0 0 0 0 0 0 0 0 0 0 0 0 0 0 0 127 0" result="hardAlpha"/>
<feOffset dy="5"/>
<feGaussianBlur stdDeviation="2"/>
<feComposite in2="hardAlpha" operator="out"/>
<feColorMatrix type="matrix" values="0 0 0 0 0 0 0 0 0 0 0 0 0 0 0 0 0 0 0.25 0"/>
<feBlend mode="normal" in2="BackgroundImageFix" result="effect1_dropShadow_12_185"/>
<feBlend mode="normal" in="SourceGraphic" in2="effect1_dropShadow_12_185" result="shape"/>
</filter>
<linearGradient id="paint0_linear_12_185" x1="184" y1="265" x2="178.766" y2="975.553" gradientUnits="userSpaceOnUse">
<stop stop-color="#0F3698" stop-opacity="0.439847"/>
<stop offset="0.128312" stop-color="#004AFF" stop-opacity="0.246706"/>
<stop offset="0.751638" stop-color="#003FD9"/>
<stop offset="1" stop-color="white" stop-opacity="0"/>
</linearGradient>
<linearGradient id="paint1_linear_12_185" x1="135.344" y1="135.261" x2="185.521" y2="142.371" gradientUnits="userSpaceOnUse">
<stop stop-color="#FF7736"/>
<stop offset="1" stop-color="#F7BB5B"/>
</linearGradient>
<radialGradient id="paint2_radial_12_185" cx="0" cy="0" r="1" gradientUnits="userSpaceOnUse" gradientTransform="translate(175.921 135.358) rotate(8.07497) scale(22.2987 22.3121)">
<stop stop-color="#F7BB5B"/>
<stop offset="1" stop-color="#FF7736"/>
</radialGradient>
<radialGradient id="paint3_radial_12_185" cx="0" cy="0" r="1" gradientUnits="userSpaceOnUse" gradientTransform="translate(184.408 139.798) rotate(8.07497) scale(17.8642 17.8749)">
<stop stop-color="#F7BB5B"/>
<stop offset="1" stop-color="#FF7736"/>
</radialGradient>
<linearGradient id="paint4_linear_12_185" x1="156.52" y1="166.85" x2="157.348" y2="184.003" gradientUnits="userSpaceOnUse">
<stop stop-color="#97D8FF"/>
<stop offset="1" stop-color="#3B7FFF"/>
</linearGradient>
<linearGradient id="paint5_linear_12_185" x1="151.539" y1="174.189" x2="174.952" y2="211.244" gradientUnits="userSpaceOnUse">
<stop stop-color="#97D8FF"/>
<stop offset="1" stop-color="#3B7FFF"/>
</linearGradient>
<linearGradient id="paint6_linear_12_185" x1="161.509" y1="163.674" x2="165.255" y2="195.905" gradientUnits="userSpaceOnUse">
<stop stop-color="#97D8FF"/>
<stop offset="1" stop-color="#3B7FFF"/>
</linearGradient>
<linearGradient id="paint7_linear_12_185" x1="156.268" y1="165.15" x2="160.142" y2="194.898" gradientUnits="userSpaceOnUse">
<stop stop-color="#97D8FF"/>
<stop offset="1" stop-color="#3B7FFF"/>
</linearGradient>
<linearGradient id="paint8_linear_12_185" x1="185.381" y1="150.628" x2="190.106" y2="186.964" gradientUnits="userSpaceOnUse">
<stop stop-color="#97D8FF"/>
<stop offset="1" stop-color="#3B7FFF"/>
</linearGradient>
<linearGradient id="paint9_linear_12_185" x1="176.778" y1="151.853" x2="180.665" y2="181.69" gradientUnits="userSpaceOnUse">
<stop stop-color="#97D8FF"/>
<stop offset="1" stop-color="#3B7FFF"/>
</linearGradient>
<linearGradient id="paint10_linear_12_185" x1="188.899" y1="215.096" x2="178.405" y2="261.08" gradientUnits="userSpaceOnUse">
<stop stop-color="#97D8FF"/>
<stop offset="1" stop-color="#3B7FFF"/>
</linearGradient>
<linearGradient id="paint11_linear_12_185" x1="189.308" y1="192.538" x2="159.978" y2="236.387" gradientUnits="userSpaceOnUse">
<stop stop-color="#97D8FF"/>
<stop offset="1" stop-color="#3B7FFF"/>
</linearGradient>
<linearGradient id="paint12_linear_12_185" x1="188.955" y1="233.432" x2="205.878" y2="293.072" gradientUnits="userSpaceOnUse">
<stop stop-color="#97D8FF"/>
<stop offset="1" stop-color="#3B7FFF"/>
</linearGradient>
<linearGradient id="paint13_linear_12_185" x1="160.947" y1="204.92" x2="197.49" y2="242.253" gradientUnits="userSpaceOnUse">
<stop stop-color="#97D8FF"/>
<stop offset="1" stop-color="#3B7FFF"/>
</linearGradient>
<linearGradient id="paint14_linear_12_185" x1="185.747" y1="172.107" x2="221.68" y2="208.816" gradientUnits="userSpaceOnUse">
<stop stop-color="#97D8FF"/>
<stop offset="1" stop-color="#3B7FFF"/>
</linearGradient>
<linearGradient id="paint15_linear_12_185" x1="175.057" y1="182.671" x2="203.09" y2="211.31" gradientUnits="userSpaceOnUse">
<stop stop-color="#97D8FF"/>
<stop offset="1" stop-color="#3B7FFF"/>
</linearGradient>
<linearGradient id="paint16_linear_12_185" x1="293.483" y1="205.383" x2="265.739" y2="133.305" gradientUnits="userSpaceOnUse">
<stop stop-color="#FFD1C2"/>
<stop offset="1" stop-color="#F67793"/>
</linearGradient>
<linearGradient id="paint17_linear_12_185" x1="247.865" y1="147.659" x2="253.747" y2="122.652" gradientUnits="userSpaceOnUse">
<stop stop-color="#FFD1C2"/>
<stop offset="1" stop-color="#F67793"/>
</linearGradient>
<linearGradient id="paint18_linear_12_185" x1="249.334" y1="116.771" x2="258.67" y2="175.905" gradientUnits="userSpaceOnUse">
<stop stop-color="#97D8FF"/>
<stop offset="1" stop-color="#3B7FFF"/>
</linearGradient>
<linearGradient id="paint19_linear_12_185" x1="273.147" y1="150.692" x2="277.019" y2="207.906" gradientUnits="userSpaceOnUse">
<stop stop-color="#97D8FF"/>
<stop offset="1" stop-color="#3B7FFF"/>
</linearGradient>
<linearGradient id="paint20_linear_12_185" x1="213.248" y1="151.814" x2="290.953" y2="230.97" gradientUnits="userSpaceOnUse">
<stop stop-color="#FFD1C2"/>
<stop offset="1" stop-color="#F67793"/>
</linearGradient>
<linearGradient id="paint21_linear_12_185" x1="212.535" y1="137.57" x2="248.15" y2="201.761" gradientUnits="userSpaceOnUse">
<stop stop-color="#97D8FF"/>
<stop offset="1" stop-color="#3B7FFF"/>
</linearGradient>
<linearGradient id="paint22_linear_12_185" x1="209.201" y1="155.788" x2="286.906" y2="234.944" gradientUnits="userSpaceOnUse">
<stop stop-color="#FFD1C2"/>
<stop offset="1" stop-color="#F67793"/>
</linearGradient>
<linearGradient id="paint23_linear_12_185" x1="253.503" y1="152.017" x2="257.382" y2="209.238" gradientUnits="userSpaceOnUse">
<stop stop-color="#97D8FF"/>
<stop offset="1" stop-color="#3B7FFF"/>
</linearGradient>
<linearGradient id="paint24_linear_12_185" x1="205.298" y1="159.623" x2="283.003" y2="238.779" gradientUnits="userSpaceOnUse">
<stop stop-color="#FFD1C2"/>
<stop offset="1" stop-color="#F67793"/>
</linearGradient>
<linearGradient id="paint25_linear_12_185" x1="239.953" y1="153.833" x2="245.031" y2="174.791" gradientUnits="userSpaceOnUse">
<stop stop-color="#97D8FF"/>
<stop offset="1" stop-color="#3B7FFF"/>
</linearGradient>
<linearGradient id="paint26_linear_12_185" x1="132.162" y1="247.078" x2="132.331" y2="282.393" gradientUnits="userSpaceOnUse">
<stop stop-color="#79FFB3"/>
<stop offset="1" stop-color="#3B9DA6"/>
</linearGradient>
<linearGradient id="paint27_linear_12_185" x1="132.611" y1="104.511" x2="111.865" y2="184.214" gradientUnits="userSpaceOnUse">
<stop stop-color="#FFD1C2"/>
<stop offset="1" stop-color="#F67793"/>
</linearGradient>
<linearGradient id="paint28_linear_12_185" x1="63.9711" y1="318.256" x2="76.1405" y2="241.136" gradientUnits="userSpaceOnUse">
<stop stop-color="#FFD1C2"/>
<stop offset="1" stop-color="#F67793"/>
</linearGradient>
<linearGradient id="paint29_linear_12_185" x1="98.9346" y1="318.592" x2="111.104" y2="241.472" gradientUnits="userSpaceOnUse">
<stop stop-color="#FFD1C2"/>
<stop offset="1" stop-color="#F67793"/>
</linearGradient>
<linearGradient id="paint30_linear_12_185" x1="139.813" y1="151.814" x2="62.1006" y2="230.97" gradientUnits="userSpaceOnUse">
<stop stop-color="#FFD1C2"/>
<stop offset="1" stop-color="#F67793"/>
</linearGradient>
<linearGradient id="paint31_linear_12_185" x1="129.415" y1="134.52" x2="135.665" y2="196.984" gradientUnits="userSpaceOnUse">
<stop stop-color="#FF7736"/>
<stop offset="1" stop-color="#F7BB5B"/>
</linearGradient>
<linearGradient id="paint32_linear_12_185" x1="143.854" y1="155.788" x2="66.1488" y2="234.944" gradientUnits="userSpaceOnUse">
<stop stop-color="#FFD1C2"/>
<stop offset="1" stop-color="#F67793"/>
</linearGradient>
<linearGradient id="paint33_linear_12_185" x1="78.9488" y1="222.733" x2="103.446" y2="152.777" gradientUnits="userSpaceOnUse">
<stop stop-color="#FF7736"/>
<stop offset="1" stop-color="#F7BB5B"/>
</linearGradient>
<linearGradient id="paint34_linear_12_185" x1="147.764" y1="159.623" x2="70.0516" y2="238.779" gradientUnits="userSpaceOnUse">
<stop stop-color="#FFD1C2"/>
<stop offset="1" stop-color="#F67793"/>
</linearGradient>
<linearGradient id="paint35_linear_12_185" x1="96.798" y1="164.775" x2="172.089" y2="237.189" gradientUnits="userSpaceOnUse">
<stop stop-color="#FF7736"/>
<stop offset="1" stop-color="#F7BB5B"/>
</linearGradient>
<linearGradient id="paint36_linear_12_185" x1="105.207" y1="147.68" x2="99.3246" y2="122.673" gradientUnits="userSpaceOnUse">
<stop stop-color="#FFD1C2"/>
<stop offset="1" stop-color="#F67793"/>
</linearGradient>
<linearGradient id="paint37_linear_12_185" x1="100.751" y1="124.055" x2="94.0803" y2="200.503" gradientUnits="userSpaceOnUse">
<stop stop-color="#FF7736"/>
<stop offset="1" stop-color="#F7BB5B"/>
</linearGradient>
<clipPath id="clip0_12_185">
<rect width="360" height="800" fill="white"/>
</clipPath>
<clipPath id="clip1_12_185">
<rect width="263" height="221" fill="white" transform="translate(49 81)"/>
</clipPath>
</defs>
</svg>
