<svg width="129" height="130" viewBox="0 0 129 130" fill="none" xmlns="http://www.w3.org/2000/svg">
<path d="M127.032 65.0351C127.079 73.34 125.483 81.5721 122.337 89.2582C119.192 96.9443 114.557 103.933 108.701 109.822C102.845 115.711 95.8828 120.384 88.2145 123.573C80.5461 126.762 72.323 128.403 64.018 128.403C55.713 128.403 47.4899 126.762 39.8215 123.573C32.1532 120.384 25.1908 115.711 19.3347 109.822C13.4787 103.933 8.84444 96.9443 5.69851 89.2582C2.55258 81.5721 0.956995 73.34 1.00351 65.0351C0.956995 56.7302 2.55258 48.4981 5.69851 40.812C8.84444 33.1259 13.4787 26.1375 19.3347 20.2485C25.1908 14.3596 32.1532 9.68629 39.8215 6.49736C47.4899 3.30844 55.713 1.66678 64.018 1.66678C72.323 1.66678 80.5461 3.30844 88.2145 6.49736C95.8828 9.68629 102.845 14.3596 108.701 20.2485C114.557 26.1375 119.192 33.1259 122.337 40.812C125.483 48.4981 127.079 56.7302 127.032 65.0351Z" stroke="white" stroke-width="1.96928" stroke-linecap="round" stroke-linejoin="round"/>
<path d="M37.433 35.03H60.624V95.03H37.433V35.03Z" fill="white"/>
<path d="M67.408 35.03H90.599V95.03H67.408V35.03Z" fill="white"/>
</svg>
