<svg width="129" height="129" viewBox="0 0 129 129" fill="none" xmlns="http://www.w3.org/2000/svg">
<path d="M127.029 64.0151C127.075 72.32 125.48 80.5521 122.334 88.2382C119.188 95.9243 114.554 102.913 108.698 108.802C102.842 114.691 95.8793 119.364 88.2109 122.553C80.5426 125.742 72.3195 127.383 64.0145 127.383C55.7095 127.383 47.4864 125.742 39.818 122.553C32.1496 119.364 25.1873 114.691 19.3312 108.802C13.4751 102.913 8.84092 95.9243 5.69498 88.2382C2.54905 80.5521 0.95347 72.32 0.999981 64.0151C0.95347 55.7102 2.54905 47.4781 5.69498 39.792C8.84092 32.1059 13.4751 25.1175 19.3312 19.2285C25.1873 13.3396 32.1496 8.6663 39.818 5.47737C47.4864 2.28845 55.7095 0.64679 64.0145 0.64679C72.3195 0.64679 80.5426 2.28845 88.2109 5.47737C95.8793 8.6663 102.842 13.3396 108.698 19.2285C114.554 25.1175 119.188 32.1059 122.334 39.792C125.48 47.4781 127.075 55.7102 127.029 64.0151Z" stroke="white" stroke-width="1.96928" stroke-linecap="round" stroke-linejoin="round"/>
<path d="M42.582 28.436L105.443 64.73L42.582 101.02V28.436Z" fill="white"/>
</svg>
